:SAMPLES-PER-SECOND 30
:FULLY-SPECIFIED
:DEGREES
244
root  35.05755747 36.51810894 -14.57896946 11.74700069 10.44504547 4.151253223
lowerback  -8.210478783 2.496370077 2.141889811
upperback  -4.480319977 2.779989958 -4.481180191
thorax  0.2836410105 1.126180053 -5.62816
lowerneck  -15.76249981 -0.4070578516 2.229259968
upperneck  13.51229954 -2.224526167 5.581230164
head  6.775706768 -0.5520862341 1.199652672
lclavicle  0 -4.497500157e-015 -2.743230041e-014
lhumerus  -44.08549881 26.24500084 67.68379974
lradius  -0.3301431537 -6.507048965e-006 27.12399864
lwrist  4.824992743e-007 -3.790274832e-007 -31.2994976
lhand  -4.408620093e-031 -36.77819824 -10.44270039
lfingers  90 7.125020027 -90
lthumb  94.71023339 -25.28705114 100.9178446
rclavicle  0 -4.497500157e-015 -2.743230041e-014
rhumerus  31.76049995 1.95678997 -50.03110123
rradius  -5.16745672e-007 2.214343908e-008 89.03949738
rwrist  1.129822067e-006 0.001802438172 179.1640015
rhand  -1.769276438e-031 3.713059902 -6.609200001
rfingers  -90 -7.125020027 -90
rthumb  -84.76703309 -9.290375165 -60.4328168
rfemur  -13.64877892 10.77702236 14.2514782
rtibia  -2.081547499 2.013716221 22.51514626
rfoot  -1.944832087 -15.50160217 -43.60670853
rtoes  3.814760155 19.64746023 -101.2168874
lfemur  -11.82732868 -22.19920921 -18.62491417
ltibia  3.499392271 2.340932846 14.37007904
lfoot  0.6709660292 -29.37720108 30.21415329
ltoes  -8.636013038 -18.10864396 -116.0419498
245
root  35.06280794 36.51911518 -14.57726786 11.69887352 10.29657555 4.113484383
lowerback  -8.214000702 2.473649979 2.099940538
upperback  -4.469500065 2.752739906 -4.470170021
thorax  0.2913340032 1.113579988 -5.594769955
lowerneck  -15.69419956 -0.4117729962 2.13812995
upperneck  13.45040035 -2.22300005 5.67031002
head  6.745950222 -0.5514659882 1.243770003
lclavicle  0 -4.497500157e-015 -2.743230041e-014
lhumerus  -44.06600189 26.20210075 67.74140167
lradius  -0.3276180625 -6.507048965e-006 27.11549759
lwrist  4.824992743e-007 -3.790274832e-007 -31.39039993
lhand  -4.411482276e-031 -36.82789993 -10.42749977
lfingers  90 7.125020027 -90
lthumb  94.73009732 -25.27043971 100.9695475
rclavicle  0 -4.497500157e-015 -2.743230041e-014
rhumerus  30.15129852 2.03022027 -50.30310059
rradius  -5.16745672e-007 2.214343908e-008 90.35189819
rwrist  1.129822067e-006 0.001802438172 178.723999
rhand  -1.7689683e-031 3.555949926 -6.662799835
rfingers  -90 -7.125020027 -90
rthumb  -84.83104712 -9.23476954 -60.59055663
rfemur  -13.60987663 10.79883003 14.24268246
rtibia  -2.029940605 2.005978823 22.47764969
rfoot  -1.912796259 -15.59493542 -43.49030304
rtoes  3.781161443 19.65370653 -101.1169754
lfemur  -11.73877716 -22.10984612 -18.6395874
ltibia  3.497821331 2.338430405 14.32111263
lfoot  0.6444903612 -29.36246681 30.26009369
ltoes  -8.623854512 -18.11428585 -116.002838
246
root  35.06698608 36.52117571 -14.57855195 11.67685795 10.12642288 3.987939835
lowerback  -8.188739777 2.448820114 1.971140146
upperback  -4.433129787 2.72961998 -4.493959904
thorax  0.3078809977 1.104570031 -5.548480034
lowerneck  -15.66289997 -0.4143930078 2.119390011
upperneck  13.40260029 -2.225610018 5.709080219
head  6.725999832 -0.5526930094 1.258820057
lclavicle  0 -4.497500157e-015 -2.743230041e-014
lhumerus  -44.04130173 26.1595993 67.78440094
lradius  -0.325078398 -6.507048965e-006 27.18069839
lwrist  4.824992743e-007 -3.790274832e-007 -31.32959938
lhand  -4.41163801e-031 -36.83060074 -10.43150043
lfingers  90 7.125020027 -90
lthumb  94.73217371 -25.27425092 100.9727588
rclavicle  0 -4.497500157e-015 -2.743230041e-014
rhumerus  28.52740097 2.087119102 -50.77830124
rradius  -5.16745672e-007 2.214343908e-008 91.66010284
rwrist  1.129822067e-006 0.001802438172 178.7089996
rhand  -1.769033692e-031 3.589869976 -6.454050064
rfingers  -90 -7.125020027 -90
rthumb  -84.71902335 -9.418458689 -60.54056275
rfemur  -13.58567905 10.86247063 14.29543114
rtibia  -1.944216251 2.046177149 22.33407402
rfoot  -1.818914294 -15.61306572 -43.37425232
rtoes  3.774924895 19.65485963 -101.0984333
lfemur  -11.86928844 -22.00663567 -18.45427132
ltibia  3.359426498 2.352324724 14.54299164
lfoot  0.659291625 -29.47730637 30.37517929
ltoes  -8.648619581 -18.10278367 -116.0825151
247
root  35.06960531 36.52037373 -14.57792567 11.62972546 9.989022255 3.927402258
lowerback  -8.231720924 2.388859987 1.852210522
upperback  -4.383299828 2.661809921 -4.458839893
thorax  0.3689849973 1.075839996 -5.447519779
lowerneck  -15.72719955 -0.364158988 2.132869959
upperneck  13.46070004 -2.159729958 5.672269821
head  6.753689766 -0.5201979876 1.251899958
lclavicle  0 -4.497500157e-015 -2.743230041e-014
lhumerus  -44.01689911 26.16340065 67.87719727
lradius  -0.3225095272 -6.507048965e-006 27.33100128
lwrist  4.824992743e-007 -3.790274832e-007 -31.06250191
lhand  -4.41239938e-031 -36.84379959 -10.32059956
lfingers  90 7.125020027 -90
lthumb  94.71496133 -25.16491572 100.9769476
rclavicle  0 -4.497500157e-015 -2.743230041e-014
rhumerus  27.02789879 2.242610216 -51.10829926
rradius  -5.16745672e-007 2.214343908e-008 92.89520264
rwrist  1.129822067e-006 0.001802438172 178.5160065
rhand  -0 3.52218008 -6.354489803
rfingers  -90 -7.125020027 -90
rthumb  -84.68567188 -9.501512572 -60.59862786
rfemur  -13.51810265 10.87728977 14.30408573
rtibia  -1.880523443 2.039135456 22.2301712
rfoot  -1.771006107 -15.69140053 -43.29869461
rtoes  3.784653718 19.65305997 -101.1273589
lfemur  -11.83358097 -21.96744728 -18.40502739
ltibia  3.322813749 2.360219955 14.5664463
lfoot  0.6773889661 -29.51087379 30.52719688
ltoes  -8.662319993 -18.09640273 -116.1266147
